<svg xmlns="http://www.w3.org/2000/svg" width="32" height="32" viewBox="0 0 32 32">
  <rect width="32" height="32" rx="8" fill="#EA580C"/>
  <path fill="white" d="M19.832 4.885a1.6 1.6 0 00-2.32-.616c-.552.368-.982.893-1.315 1.408-.342.528-.645 1.141-.912 1.786-.534 1.287-1.983 2.829-1.342 4.373a42.185 42.185 0 00-.981 5.728 4.224 4.224 0 01-1.512-1.707c-.525-1.088-.637-2.454-.637-4.246A1.6 1.6 0 008.08 9.68 11.169 11.169 0 004.8 17.6a11.2 11.2 0 0019.12-7.92c-.947-.946-1.568-1.576-2.157-2.347-.581-.762-1.158-1.701-1.931-3.248zM19.392 24.192A4.8 4.8 0 0111.2 20.8s1.406.8 4 .8c0-1.6.8-6.4 2-7.2.8 1.6 1.258 2.069 2.194 3.006A4.784 4.784 0 0120.8 20.8a4.784 4.784 0 01-1.406 3.394z"/>
</svg>
